<svg height="46" viewBox="0 0 44 46" width="44" xmlns="http://www.w3.org/2000/svg"><g fill="#fff"><text font-family="Montserrat-Medium, Montserrat" font-size="10" font-weight="500" transform="translate(22 43)"><tspan x="-21" y="0">Account</tspan></text><path d="m17.478 3a14.478 14.478 0 1 0 14.477 14.478 14.483 14.483 0 0 0 -14.477-14.478zm0 4.343a4.343 4.343 0 1 1 -4.343 4.343 4.337 4.337 0 0 1 4.343-4.343zm0 20.558a10.425 10.425 0 0 1 -8.687-4.661c.043-2.881 5.791-4.459 8.687-4.459s8.643 1.578 8.687 4.459a10.425 10.425 0 0 1 -8.687 4.66z" transform="translate(5 -3)"/></g></svg>