<svg height="171.822" viewBox="0 0 195.964 171.822" width="195.964" xmlns="http://www.w3.org/2000/svg"><g opacity=".262"><path d="m736.58 135.475h-.943v-25.863a14.969 14.969 0 0 0 -14.969-14.969h-54.8a14.969 14.969 0 0 0 -14.968 14.969v141.888a14.969 14.969 0 0 0 14.969 14.969h54.795a14.969 14.969 0 0 0 14.973-14.969v-97.616h.943z" fill="#3f3d56" transform="translate(-540.616 -94.643)"/><path d="m742.168 116.811v143.889a11.352 11.352 0 0 1 -11.347 11.351h-55.921a11.355 11.355 0 0 1 -11.356-11.351v-143.889a11.354 11.354 0 0 1 11.356-11.351h6.783a5.4 5.4 0 0 0 4.994 7.432h31.88a5.4 5.4 0 0 0 4.994-7.432h7.266a11.352 11.352 0 0 1 11.351 11.347z" fill="#fff" transform="translate(-550.199 -102.845)"/><g fill="#e6e6e6"><path d="m753.311 239.874a24.007 24.007 0 0 1 -24.016-24v-.021c0-.05 0-.1 0-.154a24.015 24.015 0 1 1 24.014 24.17zm0-47.527a23.56 23.56 0 0 0 -23.511 23.372v.138a23.513 23.513 0 1 0 23.513-23.51z" transform="translate(-600.055 -168.343)"/><path d="m772.621 450.53h-49.691a.921.921 0 0 1 -.92-.92v-12.326a.921.921 0 0 1 .92-.92h49.691a.921.921 0 0 1 .92.92v12.326a.921.921 0 0 1 -.92.92zm-49.691-13.8a.553.553 0 0 0 -.552.552v12.328a.553.553 0 0 0 .552.552h49.691a.553.553 0 0 0 .552-.552v-12.326a.553.553 0 0 0 -.552-.552z" transform="translate(-594.531 -353.749)"/><path d="m787.36 455a.644.644 0 1 0 0 1.288h30.366a.644.644 0 1 0 .049-1.288z" transform="translate(-643.593 -367.883)"/><path d="m787.36 470.99a.644.644 0 0 0 0 1.288h30.366a.644.644 0 1 0 .049-1.288z" transform="translate(-643.593 -380.005)"/><path d="m772.621 535.79h-49.691a.921.921 0 0 1 -.92-.92v-12.326a.921.921 0 0 1 .92-.92h49.691a.921.921 0 0 1 .92.92v12.326a.921.921 0 0 1 -.92.92zm-49.691-13.8a.553.553 0 0 0 -.552.552v12.328a.553.553 0 0 0 .552.552h49.691a.553.553 0 0 0 .552-.552v-12.326a.553.553 0 0 0 -.552-.552z" transform="translate(-594.531 -418.396)"/><path d="m787.36 540.26a.644.644 0 0 0 0 1.288h30.366a.644.644 0 1 0 .021-1.288z" transform="translate(-643.593 -432.528)"/><path d="m787.36 556.251a.644.644 0 1 0 0 1.288h30.366a.644.644 0 0 0 .021-1.288z" transform="translate(-643.593 -444.652)"/><path d="m772.621 621.047h-49.691a.921.921 0 0 1 -.92-.92v-12.327a.921.921 0 0 1 .92-.92h49.691a.921.921 0 0 1 .92.92v12.326a.921.921 0 0 1 -.92.92zm-49.691-13.8a.553.553 0 0 0 -.552.552v12.326a.553.553 0 0 0 .552.552h49.691a.553.553 0 0 0 .552-.552v-12.325a.553.553 0 0 0 -.552-.552z" transform="translate(-594.531 -483.042)"/><path d="m787.36 625.521a.644.644 0 0 0 0 1.288h30.366a.644.644 0 1 0 .049-1.288z" transform="translate(-643.593 -497.176)"/><path d="m787.36 641.508a.644.644 0 1 0 0 1.288h30.366a.644.644 0 1 0 .049-1.288z" transform="translate(-643.593 -509.298)"/></g><path d="m812.427 266.8h-7v-7h-1.167v7h-7v1.167h7v7h1.167v-7h7z" fill="#6b100e" transform="translate(-651.582 -219.868)"/><path d="m391.19 653.078s-5.727 6.272-6.545 20.725-1.091 16.089-1.091 16.089h20.453l3.816-9.816 4.364 9.815h19.362s2.182-30 0-30.815-40.359-5.998-40.359-5.998z" fill="#2f2e41" transform="translate(-337.9 -518.071)"/><circle cx="80.696" cy="51.423" fill="#ffb8b8" r="9.817"/><path d="m629.488 509.666-15-27.271-8.728-14.18 10.364-4.636 5.727 11.181s7.636 11.181 9.544 20.453 3.818 13.635 3.818 13.635z" fill="#ffb8b8" transform="translate(-506.387 -374.385)"/><path d="m346.72 510.307 22.362-19.635-1.09-15.817h-6.272l-1.91 8.181-18 23.725z" fill="#ffb8b8" transform="translate(-306.25 -382.936)"/><path d="m426.949 365.326s8.1 3.4 14.139-.757c0 0 14.767 2.393 15.585 3.211s-.818 25.361-.818 25.361l-3.272 13.909s4.636 21.271-2.182 26.725l1.364 7.363s-30.27 2.182-42.269-5.181l2.181-7.363 5.727-23.18-3.545-32.178s2.726-7.364 13.09-7.91z" fill="#e4e4e4" transform="translate(-357.57 -299.312)"/><path d="m570.743 379.507 7.09-1.09s3.545.545 6.818 7.363 6.818 15.817 6.818 15.817l-12.269 5.454-10.09-15.817z" fill="#e4e4e4" transform="translate(-478.594 -309.812)"/><path d="m422.338 394.771-1.636 1.363s-2.182 7.909-2.182 13.362v7.363l9.817 1.091z" fill="#e4e4e4" transform="translate(-364.413 -322.212)"/><path d="m483.53 265.495a4.81 4.81 0 0 1 -1.2-3.245 10.287 10.287 0 0 0 -.195-3.067 30.283 30.283 0 0 1 1.034-4.664c.617-1.712.1-2.307 2.748-3.242s.963-4.313 8.779-1.62a2.138 2.138 0 0 0 2.325.476c1.443-.528 2.313 1.454 2.313 1.454s.9-.739 1.405.029 2.948-.982 3.844 4.6a17.218 17.218 0 0 1 -2.179 10.566s-.432-8.938-5.508-9.1-10.816-2.085-11.528 1.679a27.44 27.44 0 0 1 -1.838 6.134z" fill="#2f2e41" transform="translate(-412.649 -211.407)"/><circle cx="36.894" cy="127.318" fill="#ffb8b8" r="4.231"/><path d="m202.9 604.355 69.679-13.909-5.823-29.171-69.679 13.908z" fill="#fff" transform="translate(-196.503 -448.462)"/><path d="m271.357 589.037-70.63 14.1-6.013-30.123 70.63-14.1zm-69.869 12.963 68.729-13.719-5.634-28.221-68.728 13.72z" fill="#e4e4e4" transform="translate(-194.714 -446.672)"/><path d="m270.456 639.067-.029.012c-.227.094-.458.182-.694.259-.08.027-.162.052-.242.076s-.162.05-.245.072c-.135.039-.272.073-.411.1-.059.015-.122.028-.182.041l-.036.008c-.074.016-.148.032-.223.045l-.193.034c-.036.008-.071.013-.106.018a10.289 10.289 0 1 1 1.6-19.945 10.288 10.288 0 0 0 3.7 17.415 10.241 10.241 0 0 1 -2.941 1.861z" fill="#6b100e" transform="translate(-241.344 -492.446)"/><path d="m326.444 625.053a10.052 10.052 0 0 0 1.394.572 10.235 10.235 0 0 1 -4.743 2.426l-.129.027a10.289 10.289 0 1 1 1.169-19.869 10.269 10.269 0 0 0 2.31 16.842z" fill="#6b100e" transform="translate(-282.622 -483.664)"/><path d="m385.488 604.261a10.289 10.289 0 1 1 -12.2-7.923 10.289 10.289 0 0 1 12.2 7.923z" fill="#6b100e" transform="translate(-323.932 -474.875)"/><path d="m403.466 635.727a6.9 6.9 0 0 1 .152 1.385 10.308 10.308 0 0 1 -7.874 1.675 6.9 6.9 0 0 1 -.425-1.327 5.419 5.419 0 0 1 1.795-5.646 3.185 3.185 0 1 1 2.415-.514 5.418 5.418 0 0 1 3.937 4.427z" fill="#fff" transform="translate(-346.219 -497.161)"/><path d="m347.958 647.5.007.031a10.514 10.514 0 0 1 .117 1.728 9.593 9.593 0 0 1 -3.6 1.267l-.129.028a10.248 10.248 0 0 1 -4.107.037 1.069 1.069 0 0 1 -.048-.12 6.6 6.6 0 0 1 -.377-1.207 5.419 5.419 0 0 1 1.795-5.646 3.184 3.184 0 0 1 -.066-6.242 3.078 3.078 0 0 1 .742-.068 10.277 10.277 0 0 0 5.669 10.192z" fill="#fff" transform="translate(-304.136 -506.116)"/><path d="m294.469 659.065a6.61 6.61 0 0 1 .127 1.245 10.252 10.252 0 0 1 -2.651 1.335c-.08.027-.162.052-.242.076s-.162.05-.245.072c-.135.039-.272.073-.411.1-.028.008-.059.015-.088.021l-.129.027c-.074.016-.148.032-.223.045l-.193.034c-.036.008-.071.013-.107.018a10.2 10.2 0 0 1 -3.584-.059.042.042 0 0 1 -.006-.016.793.793 0 0 1 -.042-.1 6.593 6.593 0 0 1 -.377-1.207 5.419 5.419 0 0 1 1.795-5.646 3.184 3.184 0 0 1 -.066-6.242 3.121 3.121 0 0 1 .524-.067 10.278 10.278 0 0 0 5.918 10.362z" fill="#fff" transform="translate(-263.555 -514.753)"/><path d="m748.01 455.635a3.446 3.446 0 0 1 -.07.693 5.155 5.155 0 0 1 -4.025 0 3.446 3.446 0 0 1 -.07-.693 2.71 2.71 0 0 1 1.465-2.575 1.592 1.592 0 1 1 1.235 0 2.71 2.71 0 0 1 1.465 2.575z" fill="#6b100e" transform="translate(-611.087 -364.089)"/><path d="m748.01 542.622a3.454 3.454 0 0 1 -.07.693 5.155 5.155 0 0 1 -4.025 0 3.444 3.444 0 0 1 -.07-.693 2.71 2.71 0 0 1 1.465-2.575 1.592 1.592 0 1 1 1.235 0 2.71 2.71 0 0 1 1.465 2.575z" fill="#6b100e" transform="translate(-611.087 -430.045)"/><path d="m748.01 627.879a3.453 3.453 0 0 1 -.07.693 5.154 5.154 0 0 1 -4.025 0 3.444 3.444 0 0 1 -.07-.693 2.71 2.71 0 0 1 1.465-2.575 1.593 1.593 0 1 1 1.235 0 2.71 2.71 0 0 1 1.465 2.575z" fill="#6b100e" transform="translate(-611.087 -494.691)"/><circle cx="126.224" cy="136.384" fill="#ffb8b8" r="3.868"/></g></svg>