<svg height="175.573" viewBox="0 0 242.866 175.573" width="242.866" xmlns="http://www.w3.org/2000/svg"><path d="m982.8 618.435c-.815-6.154-4.681-12.194-10.572-14.152a28.6 28.6 0 0 1 .154 19.637c-.883 2.449-2.121 5.081-1.252 7.536a6.394 6.394 0 0 0 3.293 3.41 18.991 18.991 0 0 0 4.643 1.387l.314.255c2.464-5.696 4.231-11.919 3.42-18.073z" fill="#f0f0f0" transform="translate(-746.187 -461.881)"/><path d="m975.188 604.1a24.448 24.448 0 0 1 6.186 13.71 10.527 10.527 0 0 1 -.094 3.3 6.037 6.037 0 0 1 -1.48 2.812 12.5 12.5 0 0 0 -1.921 2.337 3.7 3.7 0 0 0 -.157 3.02 9.606 9.606 0 0 0 2.154 3.158 9.431 9.431 0 0 1 2.392 3.511c.05.169.309.081.259-.088-.724-2.425-3.094-3.786-4.236-5.966a3.744 3.744 0 0 1 -.279-3.283 9.7 9.7 0 0 1 1.905-2.409 6.444 6.444 0 0 0 1.549-2.7 9.732 9.732 0 0 0 .22-3.281 23.721 23.721 0 0 0 -1.789-7.194 24.885 24.885 0 0 0 -4.531-7.134c-.116-.135-.295.073-.178.207z" fill="#fff" transform="translate(-749.208 -461.576)"/><path d="m995.155 635.5a3.668 3.668 0 0 0 2.761-3.864c-.015-.175-.289-.16-.273.016a3.4 3.4 0 0 1 -2.576 3.589c-.167.046-.082.305.088.259z" fill="#fff" transform="translate(-763.075 -480.93)"/><path d="m983.885 659.88a7.069 7.069 0 0 1 -3.189-4.046c-.051-.169-.31-.081-.259.088a7.354 7.354 0 0 0 3.327 4.2c.152.093.273-.153.121-.242z" fill="#fff" transform="translate(-752.901 -497.877)"/><path d="m981.454 619.636a2.076 2.076 0 0 1 -1.968-.084c-.151-.091-.271.155-.121.245a2.326 2.326 0 0 0 2.177.1.141.141 0 0 0 .086-.174.138.138 0 0 0 -.174-.087z" fill="#fff" transform="translate(-752.108 -472.547)"/><path d="m916.168 639.765c.093.059.186.119.279.18a27.346 27.346 0 0 1 3.518 2.7c.086.076.172.153.256.231a28.826 28.826 0 0 1 6.328 8.52 27.982 27.982 0 0 1 1.565 3.955c.581 1.873 1.061 3.95 2.193 5.476a4.8 4.8 0 0 0 .378.459l10.121-.08.069-.033.4.015c-.017-.071-.036-.145-.053-.217-.01-.042-.021-.083-.031-.124s-.014-.055-.019-.081c0-.009 0-.018-.007-.025 0-.025-.012-.048-.017-.071q-.157-.619-.324-1.238s0 0 0 0a41.159 41.159 0 0 0 -3.536-9.066c-.047-.085-.094-.172-.145-.257a26.709 26.709 0 0 0 -2.428-3.62 23.6 23.6 0 0 0 -1.587-1.786 19.636 19.636 0 0 0 -4.943-3.642 15.592 15.592 0 0 0 -11.724-1.387c-.097.026-.194.058-.293.091z" fill="#f0f0f0" transform="translate(-707.952 -486.219)"/><path d="m915.968 641.153a24.447 24.447 0 0 1 13.194 7.222 10.528 10.528 0 0 1 1.91 2.689 6.039 6.039 0 0 1 .512 3.136 12.5 12.5 0 0 0 -.127 3.022 3.7 3.7 0 0 0 1.693 2.505 9.607 9.607 0 0 0 3.621 1.225 9.432 9.432 0 0 1 4.024 1.363c.142.1.3-.122.154-.226-2.038-1.5-4.75-1.16-6.974-2.213a3.744 3.744 0 0 1 -2.2-2.453 9.7 9.7 0 0 1 .071-3.071 6.443 6.443 0 0 0 -.386-3.085 9.733 9.733 0 0 0 -1.8-2.753 23.719 23.719 0 0 0 -5.76-4.667 24.881 24.881 0 0 0 -7.912-2.968c-.173-.033-.19.24-.019.273z" fill="#fff" transform="translate(-707.728 -487.478)"/><path d="m955.755 650.446a3.668 3.668 0 0 0 -.122-4.748c-.118-.131-.327.046-.209.177a3.4 3.4 0 0 1 .1 4.417c-.106.137.12.29.231.154z" fill="#fff" transform="translate(-735.386 -490.818)"/><path d="m956.49 680.427a7.07 7.07 0 0 1 -4.982-1.311c-.142-.1-.3.122-.154.226a7.353 7.353 0 0 0 5.188 1.353c.175-.02.123-.288-.052-.268z" fill="#fff" transform="translate(-732.524 -514.207)"/><path d="m930.317 647.054a2.077 2.077 0 0 1 -1.622 1.118c-.175.019-.123.287.051.269a2.327 2.327 0 0 0 1.8-1.233.141.141 0 0 0 -.036-.19.137.137 0 0 0 -.19.036z" fill="#fff" transform="translate(-716.637 -491.757)"/><path d="m787.741 437.858a1.989 1.989 0 0 0 3.046.144l6.481 2.819-.631-3.618-6.058-2.122a2 2 0 0 0 -2.838 2.778z" fill="#a0616a" transform="translate(-617.829 -343.218)"/><path d="m804.672 422.5 12.381 1.6 12.768-7.691a5.645 5.645 0 0 1 8.056 2.509 5.651 5.651 0 0 1 -2.534 7.33l-17.157 6.114-.032.012-15.054-6.7z" fill="#3f3d56" transform="translate(-628.863 -329.905)"/><path d="m681.258 556.136h-2.632l-1.252-10.152h3.885z" fill="#a0616a" transform="translate(-473.809 -383.472)"/><path d="m896.1 702.794h-8.49v-.107a3.3 3.3 0 0 1 3.3-3.3l1.55-1.176 2.892 1.176h.741z" fill="#2f2e41" transform="translate(-687.975 -527.579)"/><path d="m642.338 551.2-2.567.58-3.458-9.626 3.789-.856z" fill="#a0616a" transform="translate(-445.087 -380.192)"/><path d="m864.213 698.7-8.278 1.869-.024-.1a3.3 3.3 0 0 1 2.494-3.95l1.253-1.489 3.08.51.723-.163z" fill="#2f2e41" transform="translate(-665.746 -525.354)"/><path d="m861.837 498.471a19.1 19.1 0 0 1 -.3 12.1l-.6 24.411s.892 16.008-1.986 21.641h-4.173l-2.066-23.1-.26-15.507-8.947 13.083 5.7 25.15-5.136.459-9.247-27.293 11.409-26.479z" fill="#2f2e41" transform="translate(-651.054 -387.868)"/><path d="m868.493 434.025 1.029-2.573-.681-2.212-.155-21.434v-.016l2.47-3.938.02-2.491 6.9-.168.748 1.9 1.48.885a10.712 10.712 0 0 1 5.2 9.37l-.267 14.461.688 1.376a2.9 2.9 0 0 1 -1.707 4.054l-15.174 2.427z" fill="#3f3d56" transform="translate(-674.604 -319.825)"/><circle cx="199.389" cy="72.743" fill="#a0616a" r="6.266"/><path d="m871.575 355.72a8.289 8.289 0 0 0 0-2.688 7.523 7.523 0 0 0 -3.184-5.224 2.294 2.294 0 0 0 -1.143-.454.986.986 0 0 0 -.992.6 2.056 2.056 0 0 0 -1.16-1.15 3.623 3.623 0 0 0 -1.651-.222 6.035 6.035 0 0 0 -5.034 3.6c-.167.4-.635-1.071-.847-.7a1.67 1.67 0 0 1 -.947.832c-.416.116-.584 1.828-.748 1.429a1.9 1.9 0 0 0 1.819 2.653 10.475 10.475 0 0 0 1.245-.238 3.1 3.1 0 0 1 3.4 2.323 4.108 4.108 0 0 1 .541-1.2 1.392 1.392 0 0 1 1.117-.614 1.564 1.564 0 0 1 1.075.618c.276.324.483.7.761 1.024.815.945 1.918 3.149 3.08 2.989.911-.128 2.413-2.498 2.668-3.578z" fill="#2f2e41" transform="translate(-665.662 -281.612)"/><path d="m806.243 489.232a1.989 1.989 0 0 0 2.727-1.364l7.031-.71-2.32-2.847-6.322 1.111a2 2 0 0 0 -1.117 3.811z" fill="#a0616a" transform="translate(-630.211 -377.963)"/><path d="m822.86 437.544 11.584-4.654 7.376-12.952a5.645 5.645 0 0 1 8.254-1.75 5.651 5.651 0 0 1 1.374 7.634l-11.976 13.722-.023.026-16.409 1.512z" fill="#3f3d56" transform="translate(-642.685 -330.941)"/><path d="m786.032 713h-104.578a.358.358 0 1 1 0-.716h104.578a.358.358 0 1 1 0 .716z" fill="#ccc" transform="translate(-543.524 -537.422)"/><path d="m691.86 470.32h-47.524a1.251 1.251 0 0 1 -1.249-1.249v-19.284a1.251 1.251 0 0 1 1.249-1.249h47.524a1.251 1.251 0 0 1 1.249 1.249v19.283a1.251 1.251 0 0 1 -1.249 1.249z" fill="#6b100e" transform="translate(-516.937 -352.941)"/><path d="m697.286 544.82h-38.474a1.5 1.5 0 1 1 0-3h38.474a1.5 1.5 0 0 1 0 3z" fill="#e4e4e4" transform="translate(-526.888 -418.191)"/><path d="m697.286 567.682h-38.474a1.5 1.5 0 1 1 0-3h38.474a1.5 1.5 0 0 1 0 3z" fill="#e4e4e4" transform="translate(-526.888 -434.182)"/><path d="m697.286 590.543h-38.474a1.5 1.5 0 1 1 0-3h38.474a1.5 1.5 0 0 1 0 3z" fill="#e4e4e4" transform="translate(-526.888 -450.173)"/><path d="m232.035 260.242c-8.366-10.992-11.736-26.588-5.509-38.919a63.645 63.645 0 0 0 30.555 31.237c5.236 2.48 11.317 4.694 13.8 9.93a14.227 14.227 0 0 1 .15 10.547 42.254 42.254 0 0 1 -5.153 9.472l-.095.895c-12.834-5.119-25.383-12.17-33.748-23.162z" fill="#f0f0f0" transform="translate(-223.317 -194.009)"/><path d="m233.493 220.9a54.4 54.4 0 0 0 11.739 31.344 23.426 23.426 0 0 0 5.319 5.058 13.436 13.436 0 0 0 6.746 2.119c2.234.13 4.534 0 6.7.675a8.227 8.227 0 0 1 4.983 4.52 21.375 21.375 0 0 1 1.554 8.363c.124 3.159.2 6.441 1.731 9.293.185.346-.362.613-.547.268-2.66-4.962-1.055-10.829-2.671-16.061a8.332 8.332 0 0 0 -4.709-5.62c-2.151-.83-4.523-.7-6.786-.815a14.337 14.337 0 0 1 -6.674-1.826 21.657 21.657 0 0 1 -5.494-4.834 52.777 52.777 0 0 1 -8.459-14.161 55.364 55.364 0 0 1 -4.038-18.366c-.018-.39.59-.343.607.045z" fill="#fff" transform="translate(-230.01 -193.495)"/><path d="m241.364 311.487a8.162 8.162 0 0 1 -10.42-1.768c-.251-.3.2-.7.456-.4a7.558 7.558 0 0 0 9.7 1.625c.332-.206.6.342.264.543z" fill="#fff" transform="translate(-228.601 -255.483)"/><path d="m307.178 322.586a15.731 15.731 0 0 0 -1.313-11.389c-.184-.346.363-.614.547-.268a16.363 16.363 0 0 1 1.342 11.854c-.1.379-.677.18-.576-.2z" fill="#fff" transform="translate(-281.032 -256.574)"/><path d="m240.682 255.235a4.62 4.62 0 0 0 2.975-3.22c.1-.38.672-.181.576.2a5.177 5.177 0 0 1 -3.283 3.57.315.315 0 0 1 -.407-.14.306.306 0 0 1 .139-.41z" fill="#fff" transform="translate(-235.344 -215.334)"/><path d="m341.461 186.853c-.053.239-.107.478-.157.721a60.843 60.843 0 0 0 -1.315 9.781c-.017.254-.031.512-.041.766a64.14 64.14 0 0 0 3.374 23.372 62.284 62.284 0 0 0 3.733 8.7c2.021 3.867 4.52 7.9 5.127 12.084a10.684 10.684 0 0 1 .123 1.317l-16.105 15.746c-.055.017-.106.039-.16.056l-.614.658c-.086-.139-.171-.285-.257-.424-.05-.081-.1-.164-.146-.245-.032-.055-.064-.11-.1-.157-.011-.018-.021-.037-.029-.051-.032-.048-.057-.1-.086-.139q-.722-1.224-1.43-2.461s0 0 0-.011a91.587 91.587 0 0 1 -8.638-19.855c-.059-.208-.123-.419-.175-.634a59.433 59.433 0 0 1 -1.845-9.522 52.541 52.541 0 0 1 -.3-5.308 43.694 43.694 0 0 1 2.09-13.5c2.793-8.7 8.336-16.4 16.329-20.577.212-.11.414-.214.622-.317z" fill="#f0f0f0" transform="translate(-292.642 -169.898)"/><path d="m362.733 186.441a54.4 54.4 0 0 0 -9.5 32.094 23.427 23.427 0 0 0 1.2 7.241 13.436 13.436 0 0 0 4.111 5.754c1.705 1.449 3.618 2.733 4.941 4.571a8.227 8.227 0 0 1 1.257 6.61 21.375 21.375 0 0 1 -3.794 7.613c-1.8 2.6-3.717 5.264-4.213 8.462-.06.387-.658.271-.6-.115.864-5.564 5.677-9.281 7.538-14.432a8.332 8.332 0 0 0 -.376-7.322c-1.218-1.958-3.189-3.284-4.928-4.736a14.337 14.337 0 0 1 -4.229-5.476 21.657 21.657 0 0 1 -1.476-7.168 52.775 52.775 0 0 1 1.772-16.4 55.364 55.364 0 0 1 7.834-17.1c.221-.322.677.081.458.4z" fill="#fff" transform="translate(-313.751 -169.246)"/><path d="m336.787 263.587a8.162 8.162 0 0 1 -7.255-7.685c-.019-.391.588-.439.607-.048a7.558 7.558 0 0 0 6.763 7.135c.39.041.272.639-.115.6z" fill="#fff" transform="translate(-297.612 -217.973)"/><path d="m368.9 312.058a15.731 15.731 0 0 0 5.809-9.884c.062-.387.659-.271.6.115a16.362 16.362 0 0 1 -6.066 10.273c-.313.238-.652-.262-.343-.504z" fill="#fff" transform="translate(-325.063 -250.396)"/><path d="m365.367 222.587a4.62 4.62 0 0 0 4.314-.78c.306-.246.645.26.341.5a5.177 5.177 0 0 1 -4.77.874.315.315 0 0 1 -.241-.357.306.306 0 0 1 .356-.237z" fill="#fff" transform="translate(-322.426 -194.301)"/><circle cx="53.112" cy="40.907" fill="#2f2e41" r="6.745"/><path d="m409.343 431.851h-47.524a1.251 1.251 0 0 1 -1.249-1.249v-19.284a1.251 1.251 0 0 1 1.249-1.249h47.524a1.251 1.251 0 0 1 1.249 1.249v19.282a1.251 1.251 0 0 1 -1.249 1.251z" fill="#d1d3d4" transform="translate(-319.322 -326.033)"/><path d="m414.769 506.351h-38.469a1.5 1.5 0 1 1 0-3h38.474a1.5 1.5 0 0 1 -.005 3z" fill="#e4e4e4" transform="translate(-329.273 -391.283)"/><path d="m414.769 529.213h-38.469a1.5 1.5 0 0 1 0-3h38.474a1.5 1.5 0 0 1 -.005 3z" fill="#e4e4e4" transform="translate(-329.273 -407.274)"/><path d="m414.769 552.074h-38.469a1.5 1.5 0 1 1 0-3h38.474a1.5 1.5 0 0 1 -.005 3z" fill="#e4e4e4" transform="translate(-329.273 -423.265)"/><path d="m471.077 302.615a2.27 2.27 0 0 1 -3.458.4l-16.84 7.188.443-4.168 16.411-6.363a2.282 2.282 0 0 1 3.444 2.947z" fill="#ffb6b6" transform="translate(-382.422 -248.387)"/><path d="m402.1 306.967a3.36 3.36 0 0 0 -.016 4.624c2.066 2.6 12.282 4.294 13.921 4.616s10.752-5.877 10.752-5.877l.883-4.491-10.173 3.49z" fill="#e79f1b" transform="translate(-347.721 -253.126)"/><path d="m385.475 360.5.164 3.115s-.484 2.759-.086 3.355 11.173.667 11.173.667.712-3.839 1.326-7.2z" fill="#ffb6b6" transform="translate(-336.687 -291.318)"/><path d="m261.46 350.239 2.253-.455-.645-9.1-3.326.672z" fill="#ffb6b6" transform="translate(-181.685 -239.868)"/><path d="m267.551 310.609 2.095-.942-2.717-8.708-3.092 1.391z" fill="#ffb6b6" transform="translate(-184.548 -212.082)"/><path d="m414.793 389.306-3.944 2.233-9.727-15.631a50.554 50.554 0 0 1 -20.238 7.979c-2.276.405-4.6.2-5.033-2.117q-.031-.162-.049-.327c-.269-2.53 2.879-5.773 3.279-8.869l8.614-.517 1.062 1.362 9.962-6.124a4.276 4.276 0 0 1 5.885 1.488q.1.163.183.333z" fill="#2f2e41" transform="translate(-329.965 -295.686)"/><path d="m408.463 410.758-4.513.419-8.183-16.736c-8.115 1.4-15.77 1.843-22.392.154a4.28 4.28 0 0 1 -3.061-5.17q.039-.161.089-.318c.792-2.418 2.867-4.129 4.5-6.788l11.938.181-1.333 4.6 11.6-1.5a4.276 4.276 0 0 1 4.757 3.77q.023.189.031.379z" fill="#2f2e41" transform="translate(-326.049 -306.622)"/><circle cx="53.449" cy="43.374" fill="#ffb6b6" r="4.848"/><path d="m382.755 296.716 4.445.523a.907.907 0 0 1 .78.707l.707 3.234 4.406 5.189a10.88 10.88 0 0 1 .989 6.329c-.593 3.362-.854 5.861-.854 5.861s-11.82 4.432-12.215 3.838a12.227 12.227 0 0 1 -.524-3.288l-1.582-17.6s1.78-2.967 2.769-2.967c.637-.023.555-1.46 1.079-1.826z" fill="#e79f1b" transform="translate(-332.148 -246.745)"/><ellipse cx="61.2" cy="71.543" fill="#6c63ff" rx="1.129" ry="1.354"/><path d="m485.053 485.894 3.435-1.722.647 1.51 4.344.878a1.027 1.027 0 0 1 .2 1.95l-4.2 1.8-1.364-1.184.358 1.615-1.582.678z" fill="#2f2e41" transform="translate(-406.395 -377.866)"/><path d="m496.242 451.729 3.4-1.782.674 1.5 4.359.8a1.027 1.027 0 0 1 .235 1.946l-4.165 1.873-1.385-1.16.386 1.609-1.57.706z" fill="#2f2e41" transform="translate(-414.222 -353.927)"/><path d="m383.544 256.044a6.2 6.2 0 0 1 -3.578-1.129l-.035-.024v-.043a4.678 4.678 0 0 1 4.672-4.672h1.967a4.678 4.678 0 0 1 4.672 4.672 1.088 1.088 0 0 1 -1.064 1.083l-6.525.112z" fill="#2f2e41" transform="translate(-332.865 -214.19)"/><path d="m413.566 364.081a2.27 2.27 0 0 1 -2.471-2.451l-16.139-8.648 3.53-2.26 15.226 8.83a2.282 2.282 0 0 1 -.147 4.53z" fill="#ffb6b6" transform="translate(-343.375 -284.52)"/><path d="m377.982 305.327a3.36 3.36 0 0 0 -3.619 2.879c-.739 3.24 4.327 12.271 5.1 13.751s11.31 4.717 11.31 4.717l4.057-2.119-9.084-5.758z" fill="#e79f1b" transform="translate(-328.919 -252.76)"/><path d="m352.438 229.116c.454-.556.1-1.38-.273-1.994q-1.278-2.109-2.684-4.138c-1.171-1.69-2.589-3.457-4.6-3.862-1.838-.37-3.69.5-5.272 1.511a8.259 8.259 0 0 0 -3.678 3.984 7.258 7.258 0 0 0 .536 5.144c.6 1.385 1.415 3.042.555 4.283a3.323 3.323 0 0 1 -1.592 1.083 11.37 11.37 0 0 1 -5 .737c2.334-.025 4.377 2.372 6.64 1.8a4.808 4.808 0 0 0 2.753-2.694 7.545 7.545 0 0 0 .9-2.544c.15-1.214-.174-2.492.234-3.645a5.033 5.033 0 0 1 2.694-2.57 4.755 4.755 0 0 1 2.425-.627c2.39.181 3.627 3.122 5.895 3.9" fill="#2f2e41" transform="translate(-298.239 -192.409)"/><path d="m560.383 256.5h-47.525a1.251 1.251 0 0 1 -1.249-1.249v-19.285a1.251 1.251 0 0 1 1.249-1.249h47.524a1.251 1.251 0 0 1 1.249 1.249v19.283a1.251 1.251 0 0 1 -1.248 1.251z" fill="#6b100e" transform="translate(-424.971 -203.377)"/><path d="m565.809 331h-38.474a1.5 1.5 0 0 1 0-3h38.474a1.5 1.5 0 0 1 0 3z" fill="#e4e4e4" transform="translate(-434.922 -268.628)"/><path d="m565.809 353.86h-38.474a1.5 1.5 0 0 1 0-3h38.474a1.5 1.5 0 0 1 0 3z" fill="#e4e4e4" transform="translate(-434.922 -284.619)"/><path d="m565.809 376.722h-38.474a1.5 1.5 0 0 1 0-3h38.474a1.5 1.5 0 0 1 0 3z" fill="#e4e4e4" transform="translate(-434.922 -300.61)"/><g fill="#fff"><circle cx="31.21" cy="1.691" r="1.266"/><circle cx="36.016" cy="1.691" r="1.266"/><circle cx="40.821" cy="1.691" r="1.266"/><path d="m813.157 131.252h-5.534a.41.41 0 1 1 0-.82h5.534a.41.41 0 0 1 0 .82z" transform="translate(-631.74 -130.433)"/><path d="m813.157 136.367h-5.534a.41.41 0 1 1 0-.82h5.534a.41.41 0 1 1 0 .82z" transform="translate(-631.74 -134.01)"/><path d="m813.157 141.482h-5.534a.41.41 0 1 1 0-.82h5.534a.41.41 0 1 1 0 .82z" transform="translate(-631.74 -137.588)"/></g></svg>