<svg xmlns="http://www.w3.org/2000/svg" width="20.127" height="20.13" viewBox="0 0 20.127 20.13">
  <g id="Icon_ionic-ios-chatboxes" data-name="Icon ionic-ios-chatboxes" transform="translate(-3.375 -3.375)">
    <path id="Path_84" data-name="Path 84" d="M24.254,11.981H13.53a1.846,1.846,0,0,0-1.844,1.844v7.467a1.842,1.842,0,0,0,1.844,1.839h6.136a.529.529,0,0,1,.368.155L23.083,26.1c.169.165.45.1.45-.14V23.509c0-.29.184-.382.474-.382h.048a2.014,2.014,0,0,0,2.037-1.839V13.825A1.836,1.836,0,0,0,24.254,11.981Z" transform="translate(-2.591 -2.683)" fill="#9b9b9b"/>
    <path id="Path_85" data-name="Path 85" d="M9.492,8.113h8.585V4.953A1.578,1.578,0,0,0,16.5,3.375H4.953A1.578,1.578,0,0,0,3.375,4.953v7.995a1.578,1.578,0,0,0,1.578,1.578H7.909V9.69A1.585,1.585,0,0,1,9.492,8.113Z" transform="translate(0 0)" fill="#9b9b9b"/>
  </g>
</svg>
