<svg height="53.249" viewBox="0 0 47.934 53.249" width="47.934" xmlns="http://www.w3.org/2000/svg" xmlns:xlink="http://www.w3.org/1999/xlink"><linearGradient id="a" gradientUnits="objectBoundingBox" x1=".5" x2=".5" y2="1"><stop offset="0" stop-color="#f01c19"/><stop offset="1" stop-color="#550d0c"/></linearGradient><path d="m52.434 40.28v-21.3a5.326 5.326 0 0 0 -2.663-4.607l-18.641-10.656a5.326 5.326 0 0 0 -5.326 0l-18.641 10.652a5.326 5.326 0 0 0 -2.663 4.607v21.3a5.326 5.326 0 0 0 2.663 4.607l18.637 10.656a5.326 5.326 0 0 0 5.326 0l18.645-10.652a5.326 5.326 0 0 0 2.663-4.607z" fill="url(#a)" transform="translate(-4.5 -3.003)"/><path d="m46.218 35.446v-18.546a4.635 4.635 0 0 0 -2.318-4.01l-16.223-9.266a4.635 4.635 0 0 0 -4.635 0l-16.224 9.271a4.635 4.635 0 0 0 -2.318 4.005v18.546a4.635 4.635 0 0 0 2.318 4.01l16.224 9.271a4.635 4.635 0 0 0 4.635 0l16.223-9.272a4.635 4.635 0 0 0 2.318-4.01z" fill="none" stroke="#fff" stroke-linecap="round" stroke-linejoin="round" transform="translate(-1.392 .45)"/><path d="m35.3 26.953v-13.688a3.422 3.422 0 0 0 -1.711-2.96l-11.979-6.843a3.422 3.422 0 0 0 -3.422 0l-11.977 6.843a3.422 3.422 0 0 0 -1.711 2.96v13.688a3.422 3.422 0 0 0 1.711 2.96l11.977 6.844a3.422 3.422 0 0 0 3.422 0l11.977-6.844a3.422 3.422 0 0 0 1.711-2.96z" fill="#520e0e" transform="translate(4.069 6.516)"/><path d="m20 16.176v5a1.069 1.069 0 0 1 -1.071 1.071h-5a1.073 1.073 0 0 1 -.759-1.83l1.613-1.617-4.783-4.784-4.788 4.789 1.617 1.611a1.073 1.073 0 0 1 -.759 1.83h-5a1.069 1.069 0 0 1 -1.07-1.071v-5a1.073 1.073 0 0 1 1.83-.759l1.615 1.616 4.788-4.785-4.788-4.788-1.615 1.62a1.073 1.073 0 0 1 -1.83-.759v-5a1.069 1.069 0 0 1 1.071-1.07h5a1.073 1.073 0 0 1 .759 1.83l-1.617 1.62 4.787 4.781 4.786-4.789-1.619-1.612a1.073 1.073 0 0 1 .759-1.83h5a1.069 1.069 0 0 1 1.074 1.071v5a1.073 1.073 0 0 1 -1.83.759l-1.619-1.617-4.788 4.785 4.788 4.789 1.615-1.616a1.07 1.07 0 0 1 1.834.755z" fill="#ffbe0f" transform="translate(14.283 14.414)"/></svg>