<svg xmlns="http://www.w3.org/2000/svg" width="8.635" height="8.635" viewBox="0 0 8.635 8.635">
  <path id="Icon_awesome-expand-arrows-alt" data-name="Icon awesome-expand-arrows-alt" d="M8.635,8.264v2.159a.461.461,0,0,1-.463.463H6.014a.463.463,0,0,1-.328-.79l.7-.7L4.318,7.331,2.251,9.4l.7.7a.463.463,0,0,1-.328.79H.463A.461.461,0,0,1,0,10.423V8.264a.463.463,0,0,1,.79-.328l.7.7L3.555,6.568,1.488,4.5l-.7.7A.463.463,0,0,1,0,4.871V2.713A.461.461,0,0,1,.463,2.25H2.621a.463.463,0,0,1,.328.79l-.7.7L4.318,5.8,6.384,3.736l-.7-.7a.463.463,0,0,1,.328-.79H8.173a.461.461,0,0,1,.463.463V4.871a.463.463,0,0,1-.79.328l-.7-.7L5.08,6.568,7.148,8.636l.7-.7A.462.462,0,0,1,8.635,8.264Z" transform="translate(0 -2.25)" fill="#6b100e"/>
</svg>
