<svg height="41" viewBox="0 0 38 41" width="38" xmlns="http://www.w3.org/2000/svg"><g fill="#fff"><text font-family="Montserrat-Medium, Montserrat" font-size="10" font-weight="500" transform="translate(19 38)"><tspan x="-18" y="0">Friends</tspan></text><path d="m7.95 11.525a4.638 4.638 0 1 0 -4.637-4.637 4.635 4.635 0 0 0 4.637 4.637zm3.18 1.325h-.344a6.4 6.4 0 0 1 -5.673 0h-.343a4.771 4.771 0 0 0 -4.77 4.77v1.193a1.988 1.988 0 0 0 1.987 1.987h11.925a1.988 1.988 0 0 0 1.988-1.987v-1.193a4.771 4.771 0 0 0 -4.77-4.77zm8.745-1.325a3.975 3.975 0 1 0 -3.975-3.975 3.976 3.976 0 0 0 3.975 3.975zm1.987 1.325h-.157a5.221 5.221 0 0 1 -3.66 0h-.157a4.6 4.6 0 0 0 -2.306.638 6.06 6.06 0 0 1 1.644 4.132v1.59c0 .091-.021.178-.025.265h7.312a1.988 1.988 0 0 0 1.987-1.987 4.635 4.635 0 0 0 -4.638-4.637z" transform="translate(6 -2.25)"/></g></svg>