<svg height="53.249" viewBox="0 0 47.934 53.249" width="47.934" xmlns="http://www.w3.org/2000/svg" xmlns:xlink="http://www.w3.org/1999/xlink"><linearGradient id="a" gradientUnits="objectBoundingBox" x1=".5" x2=".5" y2="1"><stop offset="0" stop-color="#f01c19"/><stop offset="1" stop-color="#550d0c"/></linearGradient><path d="m52.434 40.28v-21.3a5.326 5.326 0 0 0 -2.663-4.607l-18.641-10.656a5.326 5.326 0 0 0 -5.326 0l-18.641 10.652a5.326 5.326 0 0 0 -2.663 4.607v21.3a5.326 5.326 0 0 0 2.663 4.607l18.637 10.656a5.326 5.326 0 0 0 5.326 0l18.645-10.652a5.326 5.326 0 0 0 2.663-4.607z" fill="url(#a)" transform="translate(-4.5 -3.003)"/><path d="m46.218 35.446v-18.546a4.635 4.635 0 0 0 -2.318-4.01l-16.223-9.266a4.635 4.635 0 0 0 -4.635 0l-16.224 9.271a4.635 4.635 0 0 0 -2.318 4.005v18.546a4.635 4.635 0 0 0 2.318 4.01l16.224 9.271a4.635 4.635 0 0 0 4.635 0l16.223-9.272a4.635 4.635 0 0 0 2.318-4.01z" fill="none" stroke="#fff" stroke-linecap="round" stroke-linejoin="round" transform="translate(-1.7 .45)"/><path d="m35.3 26.953v-13.688a3.422 3.422 0 0 0 -1.711-2.96l-11.979-6.843a3.422 3.422 0 0 0 -3.422 0l-11.977 6.843a3.422 3.422 0 0 0 -1.711 2.96v13.688a3.422 3.422 0 0 0 1.711 2.96l11.977 6.844a3.422 3.422 0 0 0 3.422 0l11.977-6.844a3.422 3.422 0 0 0 1.711-2.96z" fill="#520e0e" transform="translate(4.069 6.516)"/><path d="m19.6 9.715a6.965 6.965 0 0 0 -4.943-2.052v6.995l-4.942 4.942a6.99 6.99 0 1 0 9.885-9.885zm-4.942-6.715a11.658 11.658 0 1 0 11.658 11.658 11.662 11.662 0 0 0 -11.658-11.658zm0 20.984a9.326 9.326 0 1 1 9.326-9.326 9.324 9.324 0 0 1 -9.326 9.326z" fill="#ffbe0f" transform="translate(9.331 11.591)"/></svg>