<svg height="16" viewBox="0 0 20.571 16" width="20.571" xmlns="http://www.w3.org/2000/svg"><path d="m18.857 2.25h-17.143a1.715 1.715 0 0 0 -1.714 1.714v.571h20.571v-.571a1.715 1.715 0 0 0 -1.714-1.714zm-18.857 14.286a1.715 1.715 0 0 0 1.714 1.714h17.143a1.715 1.715 0 0 0 1.714-1.714v-10.857h-20.571zm12.571-8.286a.287.287 0 0 1 .286-.286h5.143a.287.287 0 0 1 .286.286v.571a.287.287 0 0 1 -.286.286h-5.143a.287.287 0 0 1 -.286-.286zm0 2.286a.287.287 0 0 1 .286-.286h5.143a.287.287 0 0 1 .286.286v.571a.287.287 0 0 1 -.286.286h-5.143a.287.287 0 0 1 -.286-.286zm0 2.286a.287.287 0 0 1 .286-.286h5.143a.287.287 0 0 1 .286.286v.571a.287.287 0 0 1 -.286.286h-5.143a.287.287 0 0 1 -.286-.286zm-6.285-4.858a2.286 2.286 0 1 1 -2.286 2.286 2.288 2.288 0 0 1 2.286-2.286zm-3.886 7.293a2.289 2.289 0 0 1 2.175-1.579h.293a3.679 3.679 0 0 0 2.843 0h.289a2.289 2.289 0 0 1 2.175 1.579.562.562 0 0 1 -.557.707h-6.664a.564.564 0 0 1 -.554-.707z" fill="#6b100e" transform="translate(0 -2.25)"/></svg>