<svg height="45" viewBox="0 0 40 45" width="40" xmlns="http://www.w3.org/2000/svg"><text fill="#fff" font-family="Montserrat-Medium, Montserrat" font-size="10" font-weight="500" transform="translate(20 42)"><tspan x="-19" y="0">Mission</tspan></text><g fill="none" stroke="#fff" stroke-linecap="round" stroke-linejoin="round" stroke-width="2" transform="translate(5 -2)"><path d="m27.275 15.137a12.137 12.137 0 1 1 -12.138-12.137 12.137 12.137 0 0 1 12.138 12.137z"/><path d="m23.565 16.282a7.282 7.282 0 1 1 -7.283-7.282 7.282 7.282 0 0 1 7.283 7.282z" transform="translate(-1.145 -1.145)"/><path d="m19.855 17.427a2.427 2.427 0 1 1 -2.428-2.427 2.427 2.427 0 0 1 2.428 2.427z" transform="translate(-2.29 -2.29)"/></g></svg>