<svg height="24" viewBox="0 0 68 24" width="68" xmlns="http://www.w3.org/2000/svg" xmlns:xlink="http://www.w3.org/1999/xlink"><linearGradient id="a" gradientUnits="objectBoundingBox" x1=".5" x2=".5" y2="1"><stop offset="0" stop-color="#fff"/><stop offset="1" stop-color="#b7b7b7"/></linearGradient><g transform="translate(-94 -87)"><rect fill="url(#a)" height="24" rx="5" transform="translate(94 87)" width="68"/><path d="m15.992 4.5h-13.443a.7.7 0 0 0 -.7.7v.232h-1.149a.7.7 0 0 0 -.7.7v7.868a1.622 1.622 0 0 0 1.622 1.622h13.678a1.391 1.391 0 0 0 1.391-1.391v-9.031a.7.7 0 0 0 -.699-.7zm-14.37 9.734a.232.232 0 0 1 -.231-.234v-7.182h.464v7.182a.232.232 0 0 1 -.233.234zm6.837-.464h-4.4a.348.348 0 0 1 -.348-.348v-.232a.348.348 0 0 1 .348-.348h4.4a.348.348 0 0 1 .348.348v.232a.348.348 0 0 1 -.348.348zm6.026 0h-4.4a.348.348 0 0 1 -.348-.348v-.232a.348.348 0 0 1 .348-.348h4.4a.348.348 0 0 1 .348.348v.232a.348.348 0 0 1 -.348.348zm-6.026-2.781h-4.4a.348.348 0 0 1 -.348-.348v-.231a.348.348 0 0 1 .348-.348h4.4a.348.348 0 0 1 .348.348v.232a.348.348 0 0 1 -.348.347zm6.026 0h-4.4a.348.348 0 0 1 -.348-.348v-.231a.348.348 0 0 1 .348-.348h4.4a.348.348 0 0 1 .348.348v.232a.348.348 0 0 1 -.348.347zm0-2.781h-10.429a.348.348 0 0 1 -.348-.348v-1.16a.348.348 0 0 1 .348-.348h10.429a.348.348 0 0 1 .348.348v1.161a.348.348 0 0 1 -.348.347z" fill="#484848" transform="translate(102.916 89.524)"/><text fill="#484848" font-family="Montserrat-Bold, Montserrat" font-size="9" font-weight="700" transform="translate(123 103)"><tspan x="0" y="0">NEWS</tspan></text><g fill="none" stroke="#909090"><rect height="20" rx="4" stroke="none" width="64" x="96" y="89"/><rect fill="none" height="19" rx="3.5" width="63" x="96.5" y="89.5"/></g></g></svg>