<svg height="61.732" viewBox="0 0 156 61.732" width="156" xmlns="http://www.w3.org/2000/svg"><g fill="#fff"><text font-family="Montserrat-Bold, Montserrat" font-size="14" font-weight="700" transform="translate(78 41.732)"><tspan x="-71" y="0">Pair with bluetooth</tspan><tspan x="-77" y="16">to unlock all features</tspan></text><path d="m14.958 8.377h-.9v-2.693a5.684 5.684 0 1 0 -11.368 0v2.693h-.89a1.8 1.8 0 0 0 -1.8 1.8v7.18a1.8 1.8 0 0 0 1.8 1.8h13.158a1.8 1.8 0 0 0 1.8-1.8v-7.18a1.8 1.8 0 0 0 -1.8-1.8zm-3.889 0h-5.385v-2.693a2.693 2.693 0 1 1 5.385 0z" transform="translate(70)"/></g></svg>