<svg height="30" viewBox="0 0 86 30" width="86" xmlns="http://www.w3.org/2000/svg" xmlns:xlink="http://www.w3.org/1999/xlink"><linearGradient id="a" gradientUnits="objectBoundingBox" x1=".5" x2=".5" y2="1"><stop offset="0" stop-color="#2c36b4"/><stop offset="1" stop-color="#0e1136"/></linearGradient><g transform="translate(-310 -51.176)"><rect fill="url(#a)" height="30" rx="5" transform="translate(310 51.176)" width="86"/><text fill="#fff" font-family="Montserrat-Bold, Montserrat" font-size="12" font-weight="700" transform="translate(344 70.176)"><tspan x="0" y="0">PAIR</tspan></text><path d="m7.333 8.419 3-3.346-4.727-5.073v6.681l-2.789-2.788-1.017 1.017 3.5 3.51-3.5 3.51 1.017 1.017 2.788-2.788.088 6.42 4.81-4.813zm1.323-3.335-1.618 1.616-.011-3.245zm-1.618 5.052 1.618 1.618-1.629 1.63z" fill="#fff" transform="translate(329.332 57.217)"/><g fill="none" stroke="#9b9ede"><rect height="26" rx="4" stroke="none" width="80" x="313" y="53.176"/><rect fill="none" height="25" rx="3.5" width="79" x="313.5" y="53.676"/></g></g></svg>