<svg height="46" viewBox="0 0 28.244 46" width="28.244" xmlns="http://www.w3.org/2000/svg"><g fill="#fff"><text font-family="Montserrat-Medium, Montserrat" font-size="10" font-weight="500" transform="translate(14 43)"><tspan x="-13" y="0">Rank</tspan></text><path d="m12.343 7.213-3.814-6.356a1.765 1.765 0 0 0 -1.513-.857h-6.132a.883.883 0 0 0 -.723 1.389l6.139 8.769a11.417 11.417 0 0 1 6.043-2.945zm15.017-7.213h-6.132a1.765 1.765 0 0 0 -1.514.857l-3.814 6.356a11.42 11.42 0 0 1 6.044 2.945l6.138-8.768a.883.883 0 0 0 -.722-1.39zm-13.238 8.826a9.709 9.709 0 1 0 9.709 9.709 9.709 9.709 0 0 0 -9.709-9.709zm5.1 8.675-2.089 2.039.495 2.881a.633.633 0 0 1 -.918.667l-2.588-1.36-2.587 1.36a.633.633 0 0 1 -.918-.667l.495-2.881-2.093-2.04a.634.634 0 0 1 .35-1.081l2.892-.419 1.292-2.621a.635.635 0 0 1 1.137 0l1.293 2.621 2.892.421a.634.634 0 0 1 .35 1.081z"/></g></svg>