<svg height="53.249" viewBox="0 0 47.934 53.249" width="47.934" xmlns="http://www.w3.org/2000/svg" xmlns:xlink="http://www.w3.org/1999/xlink"><linearGradient id="a" gradientUnits="objectBoundingBox" x1=".5" x2=".5" y2="1"><stop offset="0" stop-color="#f01c19"/><stop offset="1" stop-color="#550d0c"/></linearGradient><path d="m52.434 40.28v-21.3a5.326 5.326 0 0 0 -2.663-4.607l-18.641-10.656a5.326 5.326 0 0 0 -5.326 0l-18.641 10.652a5.326 5.326 0 0 0 -2.663 4.607v21.3a5.326 5.326 0 0 0 2.663 4.607l18.637 10.656a5.326 5.326 0 0 0 5.326 0l18.645-10.652a5.326 5.326 0 0 0 2.663-4.607z" fill="url(#a)" transform="translate(-4.5 -3.003)"/><path d="m46.218 35.446v-18.546a4.635 4.635 0 0 0 -2.318-4.01l-16.223-9.266a4.635 4.635 0 0 0 -4.635 0l-16.224 9.271a4.635 4.635 0 0 0 -2.318 4.005v18.546a4.635 4.635 0 0 0 2.318 4.01l16.224 9.271a4.635 4.635 0 0 0 4.635 0l16.223-9.272a4.635 4.635 0 0 0 2.318-4.01z" fill="none" stroke="#fff" stroke-linecap="round" stroke-linejoin="round" transform="translate(-1.392 .45)"/><path d="m35.3 26.953v-13.688a3.422 3.422 0 0 0 -1.711-2.96l-11.979-6.843a3.422 3.422 0 0 0 -3.422 0l-11.977 6.843a3.422 3.422 0 0 0 -1.711 2.96v13.688a3.422 3.422 0 0 0 1.711 2.96l11.977 6.844a3.422 3.422 0 0 0 3.422 0l11.977-6.844a3.422 3.422 0 0 0 1.711-2.96z" fill="#520e0e" transform="translate(4.069 6.516)"/><path d="m16.943 0c.079.31.171.616.234.929a5.691 5.691 0 0 1 .054 1.833 2.477 2.477 0 0 1 -.462 1.268c-.068.087-.041.141.019.212a1.462 1.462 0 0 1 .4.988 1.285 1.285 0 0 1 -.505.991c-.138.117-.144.125-.011.253a1.016 1.016 0 0 1 .353.657.932.932 0 0 1 -.337.749 2.578 2.578 0 0 1 -.967.521c-.589.2-1.184.386-1.781.559a15.6 15.6 0 0 0 -2.14.665 2.092 2.092 0 0 0 -1.151 1.051 2.038 2.038 0 0 0 -.133 1.13c.041.282.117.562.182.842a.83.83 0 0 0 .06.133l.041-.005c.008-.052.016-.1.022-.157.038-.4.057-.8.117-1.2a1.891 1.891 0 0 1 .375-.847c.073-.1.141-.125.253-.054a4.109 4.109 0 0 1 1.719 1.863 4.177 4.177 0 0 1 .315 1.309.3.3 0 0 1 -.084.2c-.475.516-.948 1.032-1.434 1.54-.79.823-1.591 1.64-2.387 2.457-.092.1-.19.187-.285.285a.714.714 0 0 0 -.065.092l.033.03c.065-.049.133-.1.2-.152.8-.717 1.6-1.434 2.395-2.159.6-.549 1.2-1.108 1.792-1.665.087-.081.144-.076.231 0 .193.171.391.342.6.5a.315.315 0 0 1 .128.337 1.91 1.91 0 0 1 -.437.956 8.124 8.124 0 0 1 -.809.836c-.665.581-1.287 1.208-1.9 1.849-.684.72-1.4 1.412-2.115 2.1a24.385 24.385 0 0 1 -2.551 2.084 18.094 18.094 0 0 1 -3.435 2 9.323 9.323 0 0 1 -2.015.627c-.136.024-.274.052-.413.062a.248.248 0 0 1 -.176-.057c-.19-.2-.367-.4-.568-.627a10.966 10.966 0 0 0 3.5-2.333l-.03-.046a1.268 1.268 0 0 0 -.117.081 8.909 8.909 0 0 1 -3.111 1.784c-.117.041-.239.076-.353.119s-.155 0-.171-.1a1.525 1.525 0 0 1 .1-.885 4.624 4.624 0 0 1 1.162-1.485c.212-.2.443-.369.657-.562a.7.7 0 0 0 .179-.247q.635-1.6 1.26-3.212c.3-.771.6-1.545.9-2.319.2-.527.429-1.048.6-1.586a7.115 7.115 0 0 0 .291-2.072c0-.288.016-.576.022-.863a1.119 1.119 0 0 0 -.022-.163h-.043a1 1 0 0 0 -.038.149c-.035.31-.062.622-.106.929a5.641 5.641 0 0 1 -.611 2.009.735.735 0 0 1 -.065.1.376.376 0 0 1 -.054.046c-.1-.09-.193-.174-.28-.266-.478-.491-.953-.986-1.431-1.48-.386-.4-.766-.809-1.162-1.2a.541.541 0 0 1 -.1-.706 1.26 1.26 0 0 1 1.132-.758 9.1 9.1 0 0 0 1.686-.298c1.4-.356 2.755-.869 4.118-1.353.1-.033.2-.054.288-.092s.147-.011.187.081c.068.147.157.285.225.432a.525.525 0 0 1 .046.215v1.61a.393.393 0 0 0 .033.1h.046c.011-.09.027-.182.03-.272a4.6 4.6 0 0 1 1.377-3.066 15.7 15.7 0 0 1 1.958-1.67 19.6 19.6 0 0 0 2.65-2.275 7.657 7.657 0 0 0 1.73-3.016c.016-.052.024-.1.041-.152s.033-.1.049-.147a.252.252 0 0 1 .065-.016z" fill="#ffbe0f" transform="matrix(.92718385 .37460659 -.37460659 .92718385 20.107 11.65)"/></svg>