<svg height="24" viewBox="0 0 68 24" width="68" xmlns="http://www.w3.org/2000/svg" xmlns:xlink="http://www.w3.org/1999/xlink"><linearGradient id="a" gradientUnits="objectBoundingBox" x1=".5" x2=".5" y2="1"><stop offset="0" stop-color="#fff"/><stop offset="1" stop-color="#b2b2b2"/></linearGradient><g transform="translate(-30 -202)"><rect fill="url(#a)" height="24" rx="5" transform="translate(30 202)" width="68"/><text fill="#8d8d8d" font-family="Montserrat-Bold, Montserrat" font-size="8" font-weight="700" transform="translate(54 217)"><tspan x="0" y="0">UNPAIR</tspan></text><path d="m6.175 6.657 2.372-2.645-3.738-4.012v5.283l-2.2-2.2-.8.8 2.758 2.774-2.767 2.775.8.8 2.2-2.2.07 5.077 3.812-3.809zm1.046-2.637-1.279 1.28-.009-2.568zm-1.279 3.995 1.28 1.28-1.289 1.287z" fill="#8d8d8d" transform="translate(39.374 206.916)"/><g fill="none" stroke="#969696"><rect height="20" rx="4" stroke="none" width="64" x="32" y="204"/><rect fill="none" height="19" rx="3.5" width="63" x="32.5" y="204.5"/></g></g></svg>