<svg height="23.55" viewBox="0 0 33.643 23.55" width="33.643" xmlns="http://www.w3.org/2000/svg"><path d="m10.093 14.025a5.887 5.887 0 1 0 -5.888-5.888 5.885 5.885 0 0 0 5.888 5.888zm4.037 1.682h-.436a8.129 8.129 0 0 1 -7.2 0h-.438a6.057 6.057 0 0 0 -6.056 6.056v1.514a2.524 2.524 0 0 0 2.523 2.523h15.139a2.524 2.524 0 0 0 2.523-2.523v-1.514a6.057 6.057 0 0 0 -6.055-6.056zm11.1-1.682a5.046 5.046 0 1 0 -5.046-5.046 5.048 5.048 0 0 0 5.048 5.046zm2.523 1.682h-.2a6.629 6.629 0 0 1 -4.647 0h-.2a5.839 5.839 0 0 0 -2.928.81 7.693 7.693 0 0 1 2.087 5.246v2.019c0 .116-.026.226-.032.336h9.287a2.524 2.524 0 0 0 2.523-2.523 5.885 5.885 0 0 0 -5.887-5.887z" fill="#bcbcbc" transform="translate(0 -2.25)"/></svg>